# xmcd CD database file
#
# Track frame offsets:
#	150
#	21197
#	41100
#	60645
#	76547
#
# Disc length: 1300 seconds
#
# Revision: 0
# Processed by: cddbd v1.5.1PL0 Copyright (c) Steve Scherf et al.
# Submitted via: CDex 1.51
#
DISCID=32051205
DTITLE=sparkling☆point - トロピカルビーチ
DYEAR=2005
DGENRE=JPop
TTITLE0=トロピカルビーチ
TTITLE1=HAPPY☆in my life
TTITLE2=Have a good time!fresh smoothy vers.-
TTITLE3=SOUTH POINT
TTITLE4=トロピカルビーチinst-
EXTD=YEAR: 2005
EXTT0=
EXTT1=
EXTT2=
EXTT3=
EXTT4=
PLAYORDER=
